<svg width="35" height="35" viewBox="0 0 35 35" fill="none" xmlns="http://www.w3.org/2000/svg">
<path d="M5.20879 19.0361L7.56081 9.19496C7.73521 8.46526 8.30332 7.89454 9.03221 7.7168L18.8624 5.31971L25.2201 11.3087C25.4631 11.5376 25.4004 11.939 25.0993 12.083C24.8705 12.1924 24.717 12.4153 24.6965 12.6681L24.5791 14.1143C24.5197 14.8461 23.923 15.4182 23.1893 15.4467C21.4168 15.5156 19.9981 16.9409 19.9373 18.7137L19.9124 19.4412C19.9014 19.7609 19.6556 20.0231 19.3373 20.0546C17.7417 20.2126 16.3903 21.2987 15.8925 22.8229L15.6215 23.6528C15.4301 24.239 14.9362 24.6754 14.331 24.7932L11.5385 25.3369L5.20879 19.0361Z" stroke="#1C274C" stroke-width="1.2" stroke-linecap="round"/>
<path d="M17.0214 31.8862L15.8593 30.7294C15.0491 29.9229 15.4376 28.5403 16.5493 28.2739C17.3698 28.0772 18.03 27.4697 18.294 26.6682L18.944 24.6951C19.176 23.9907 19.7964 23.4856 20.5332 23.4013C22.0219 23.2309 23.1246 21.9374 23.0574 20.4405L23.0048 19.2689C22.9724 18.5473 23.5925 17.9675 24.3103 18.0482L24.8223 18.1057C26.6416 18.3103 28.2336 16.8854 28.2312 15.0546C28.2304 14.4479 28.9633 14.1428 29.3933 14.5708L31.428 16.5963C32.8937 18.0552 32.8991 20.4261 31.4401 21.8917L21.5016 31.8759C20.2672 33.1159 18.2614 33.1205 17.0214 31.8862Z" stroke="#1C274C" stroke-width="1.2" stroke-linecap="round"/>
</svg>
