<svg width="70" height="118" viewBox="0 0 70 118" fill="none" xmlns="http://www.w3.org/2000/svg">
<g id="SVGRepo_iconCarrier" opacity="0.43">
<g id="Group">
<g id="Group_2">
<path id="Vector" d="M0.338707 37.2888L16.8443 20.7667L34.7838 2.82715L62.16 18.2992L114.195 70.3504C114.895 71.0504 115.262 72.001 115.278 72.9344C115.278 73.8847 114.928 74.8353 114.195 75.5687L93.7543 96.009L73.0639 116.699L72.8472 116.916C72.1136 117.65 71.1635 118 70.2131 118C69.2795 117.983 68.3292 117.617 67.6289 116.916L15.5945 64.8652L1.67287 40.2734L0.105652 37.5056L0.338707 37.2888ZM27.5315 25.8186C27.5147 25.8018 27.5147 25.8018 27.4982 25.7853C27.4147 25.6851 27.3313 25.5683 27.2313 25.4686C27.098 25.335 26.9312 25.2015 26.7811 25.1013C26.6478 25.0011 26.5145 24.9349 26.3644 24.868C25.5143 24.4847 24.5471 24.4847 23.6968 24.8848C23.4632 24.9682 23.23 25.1346 23.0298 25.3015C22.9464 25.3516 22.8797 25.418 22.7965 25.5017C22.3964 25.9014 22.1463 26.3353 22.0128 26.8519C21.7793 27.5688 21.8294 28.3861 22.1628 29.0861C22.2295 29.2197 22.3129 29.3527 22.3964 29.4863C22.4129 29.5364 22.4462 29.5697 22.463 29.603C22.5464 29.7361 22.6464 29.8363 22.7464 29.9531H22.7632C22.8466 30.036 22.9631 30.1362 23.0633 30.2197L23.0967 30.2364C24.1638 31.07 25.6476 31.1201 26.748 30.37C26.8146 30.3366 26.8647 30.3033 26.9146 30.2698C26.9314 30.253 26.9647 30.2364 26.9813 30.2364C27.0479 30.153 27.1314 30.1197 27.2146 30.0363L27.3145 29.9365C27.3812 29.8864 27.4313 29.8198 27.4646 29.7363C27.548 29.6529 27.6147 29.5699 27.6646 29.4865C27.8813 29.153 28.0314 28.8193 28.1148 28.4527C28.3152 27.5525 28.1316 26.5853 27.5315 25.8186Z" fill="#DDB76B"/>
<path id="Vector_2" d="M20.0126 24.8015L21.2631 23.5344L21.8301 22.9842L35.6515 9.14648L59.0594 22.3841L109.61 72.9515L90.1533 92.4081L70.2464 112.332L19.6791 61.7644L6.4412 38.3726L20.0126 24.8015ZM22.3966 29.4864C22.4131 29.5365 22.4465 29.5698 22.4632 29.6031C22.5467 29.7362 22.6467 29.8364 22.7466 29.9532H22.7634C22.8468 30.0361 22.9634 30.1363 23.0636 30.2198L23.0969 30.2366C24.164 31.0702 25.6478 31.1203 26.7482 30.3701C26.8149 30.3368 26.865 30.3034 26.9149 30.2699C26.9316 30.2531 26.965 30.2366 26.9815 30.2366C27.0482 30.1531 27.1316 30.1198 27.2148 30.0364L27.3148 29.9366C27.3814 29.8865 27.4315 29.8199 27.4648 29.7364C27.5483 29.653 27.6149 29.57 27.6648 29.4866C27.8815 29.1531 28.0316 28.8194 28.115 28.4528C28.3152 27.5528 28.1316 26.5857 27.5315 25.819C27.5147 25.8022 27.5147 25.8022 27.4982 25.7856C27.4147 25.6854 27.3313 25.5687 27.2313 25.4689C27.098 25.3354 26.9312 25.2019 26.7811 25.1016C26.6478 25.0014 26.5145 24.9352 26.3644 24.8684C25.5143 24.485 24.5471 24.485 23.6968 24.8851C23.4632 24.9686 23.23 25.135 23.0298 25.3018C22.9464 25.3519 22.8797 25.4184 22.7965 25.502C22.3964 25.9017 22.1463 26.3356 22.0128 26.8523C21.7793 27.5691 21.8294 28.3864 22.1628 29.0865C22.23 29.2198 22.3132 29.3531 22.3966 29.4864Z" fill="#E59C44"/>
<path id="Vector_3" d="M23.8209 57.9536L54.7672 27.0073L101.042 73.2824L70.096 104.229L23.8209 57.9536Z" fill="#FDFEFE"/>
<g id="Group_3">
<path id="Vector_4" d="M51.2542 41.4371L55.2733 37.418L90.6315 72.7762L86.6124 76.7953L51.2542 41.4371Z" fill="#C1B3B3"/>
<path id="Vector_5" d="M42.7433 49.9483L46.7625 45.9292L82.1206 81.2874L78.1015 85.3065L42.7433 49.9483Z" fill="#C1B3B3"/>
<path id="Vector_6" d="M34.2317 58.4596L38.2509 54.4404L62.3016 78.4912L58.2825 82.5104L34.2317 58.4596Z" fill="#C1B3B3"/>
</g>
<path id="Vector_7" d="M22.7561 29.9532C22.8627 30.0598 22.9754 30.1582 23.093 30.2457C22.1569 29.0039 22.2546 27.2317 23.3856 26.1007C24.5166 24.9697 26.2886 24.872 27.5304 25.8081C27.4428 25.6907 27.3447 25.5781 27.238 25.4712C26.0004 24.2336 23.994 24.2336 22.7563 25.4712C21.5185 26.7091 21.5185 28.7155 22.7561 29.9532Z" fill="#4D4C4C"/>
<g id="Group_4">
<path id="Vector_8" d="M10.859 1.59326C10.8758 2.32666 10.9091 3.06028 10.959 3.77713C11.2592 7.79551 12.2095 11.6631 13.8266 15.3147C14.6602 17.2485 15.6772 19.0492 16.8443 20.7665C17.7278 22.0671 18.6782 23.3007 19.7119 24.4845C19.8119 24.6013 19.8953 24.6845 20.0121 24.8012C20.4957 25.3682 21.0126 25.9014 21.546 26.4351C21.6793 26.5686 21.8126 26.6854 21.9629 26.8185H21.9797C21.9797 26.8352 21.9797 26.8518 22.013 26.8518C22.0964 26.9352 22.1799 27.0186 22.2631 27.0851C22.3798 27.1853 22.5131 27.302 22.6299 27.3855L22.7466 27.519C23.9471 28.5691 25.1976 29.5362 26.498 30.3866C26.5147 30.4034 26.5646 30.4367 26.5814 30.453C26.6315 30.4367 26.6981 30.4034 26.7482 30.3701C26.8149 30.3367 26.865 30.3034 26.9149 30.2699C26.9317 30.2531 26.965 30.2365 26.9815 30.2365C27.0482 30.1531 27.1316 30.1198 27.2148 30.0363L27.3148 29.9366C27.3814 29.8865 27.4315 29.8198 27.4816 29.753C27.5651 29.67 27.6149 29.5861 27.665 29.4864C27.7818 29.3528 27.865 29.2027 27.9484 29.0529C28.0319 28.8527 28.0985 28.6695 28.1318 28.4691L28.1153 28.4523C26.7981 27.5523 25.5145 26.5852 24.3306 25.4684H24.3139C24.1638 25.3181 24.0473 25.2181 23.8969 25.0851L23.697 24.8849C23.6802 24.8849 23.6637 24.8681 23.6471 24.8516C23.0135 24.2678 22.4134 23.6346 21.8298 22.9839C21.6798 22.8341 21.5465 22.684 21.4297 22.5337C20.4292 21.4002 19.5124 20.1998 18.6786 18.9327C15.4109 13.9309 13.4768 7.9626 13.3769 1.57695C13.3769 1.51029 13.3769 1.44341 13.3601 1.37676C13.2767 0.760123 12.7432 0.343208 12.093 0.32666C11.4093 0.342978 10.8425 0.909974 10.859 1.59326Z" fill="#CEC59D"/>
</g>
</g>
<path id="Vector_9" opacity="0.1" d="M16.8445 20.7665L17.078 20.5327C16.4278 19.5661 15.8275 18.5656 15.2772 17.5488L17.6781 19.9329L21.2625 23.5339L80.5663 82.8379L86.0349 88.2897L90.153 92.4078L92.9705 95.2421L93.7543 96.0091L73.0639 116.699C72.347 117.417 71.4132 117.767 70.4631 117.767H70.4463C69.496 117.767 68.5789 117.417 67.8621 116.699L15.8109 64.6487L1.67258 39.6564L0.338867 37.2891L16.8445 20.7665ZM22.8298 27.1517C22.7964 27.2684 22.7631 27.3854 22.7463 27.5189C22.5962 28.3689 22.7631 29.2691 23.2965 30.0027C24.2136 30.72 25.4473 30.8363 26.4976 30.3865C26.5811 30.3364 26.6976 30.2863 26.781 30.2365C25.414 29.3027 24.0968 28.2691 22.8298 27.1517Z" fill="#040000"/>
</g>
</g>
</svg>
