<svg width="96" height="141" viewBox="0 0 96 141" fill="none" xmlns="http://www.w3.org/2000/svg">
<g id="SVGRepo_iconCarrier" opacity="0.35">
<path id="Vector" d="M55.5072 40.326L47.9576 27.2497C47.4569 26.3823 46.3451 26.0844 45.4762 26.5861C44.6089 27.0869 44.311 28.1986 44.8118 29.066L53.214 43.6191C53.714 44.4851 54.8256 44.7828 55.693 44.282C55.7912 44.2253 55.885 44.161 55.9672 44.0868C59.4275 42.2938 63.7326 43.5175 65.7012 46.9273C67.724 50.4309 66.5202 54.9334 63.012 56.9589C59.5069 58.9826 55.0034 57.7772 52.9797 54.2721L49.8323 56.0893C52.8585 61.3308 59.5882 63.1301 64.8267 60.1057C70.0698 57.0786 71.8718 50.3535 68.8456 45.1119C66.1322 40.4086 60.4345 38.4861 55.5072 40.326Z" fill="#91ADB5"/>
<g id="Group">
<path id="Vector_2" d="M53.8272 41.0502C53.9254 40.9935 54.0174 40.9261 54.1005 40.8534C54.5556 40.6172 55.0215 40.4384 55.4948 40.3044L53.6404 37.0924L47.9576 27.2495C47.4569 26.3822 46.3451 26.0843 45.4762 26.586C44.6089 27.0867 44.311 28.1985 44.8117 29.0658L51.3473 40.3857C51.8456 41.2524 52.9596 41.5511 53.8272 41.0502Z" fill="#A8C6CC"/>
<path id="Vector_3" d="M67.7533 43.5564C64.8516 40.0834 60.0627 38.7704 55.7895 40.2365C58.8619 39.5129 62.1755 40.8238 63.834 43.6965C64.1549 44.2522 64.387 44.8388 64.5469 45.4344C64.9855 45.875 65.3764 46.3679 65.7008 46.9299C67.3628 49.8085 66.8407 53.3609 64.6546 55.6589C68.0922 52.681 69.3446 47.8372 67.7533 43.5564Z" fill="#A8C6CC"/>
<path id="Vector_4" d="M52.98 54.2719L50.413 55.7539C53.3329 58.2052 57.388 59.0062 61.0626 57.7303C57.9795 58.4745 54.642 57.1505 52.98 54.2719Z" fill="#A8C6CC"/>
</g>
<path id="Vector_5" d="M53.71 27.0727C54.045 27.6529 53.8466 28.3941 53.2692 28.7274L43.4355 34.4049C42.8537 34.7408 42.1157 34.5406 41.7806 33.9601L39.7365 30.4197C39.4015 29.8395 39.5979 29.1016 40.1797 28.7657L50.0134 23.0882C50.5908 22.7548 51.3308 22.9518 51.6659 23.5323L53.71 27.0727Z" fill="#608387"/>
<path id="SVGCleanerId_0" d="M52.1387 106.45C51.5676 106.78 50.8728 106.889 50.1858 106.706C48.8127 106.338 47.999 104.928 48.366 103.554L60.8696 56.8899C61.2384 55.5184 62.6494 54.7038 64.0215 55.0701L110.686 67.5737C112.059 67.9416 112.872 69.351 112.505 70.7256C112.136 72.0971 110.727 72.9108 109.355 72.5445L65.1759 60.7066L53.3365 104.887C53.1537 105.574 52.7085 106.121 52.1387 106.45Z" fill="#91ADB5"/>
<path id="Vector_6" d="M142.297 91.4603C143.222 93.0631 142.674 95.1135 141.07 96.0397L57.8299 144.098C56.2256 145.024 54.1743 144.475 53.2489 142.872L34.9454 111.169C34.0191 109.565 34.5688 107.514 36.1731 106.588L119.414 58.5281C121.019 57.6019 123.068 58.1524 123.995 59.7567L142.298 91.4594L142.297 91.4603Z" fill="#CC7700"/>
<g id="Group_2">
<path id="SVGCleanerId_0_1_" d="M52.1387 106.45C51.5676 106.78 50.8728 106.889 50.1858 106.706C48.8127 106.338 47.999 104.928 48.366 103.554L60.8696 56.8899C61.2384 55.5184 62.6494 54.7038 64.0215 55.0701L110.686 67.5737C112.059 67.9416 112.872 69.351 112.505 70.7256C112.136 72.0971 110.727 72.9108 109.355 72.5445L65.1759 60.7066L53.3365 104.887C53.1537 105.574 52.7085 106.121 52.1387 106.45Z" fill="#91ADB5"/>
</g>
<path id="Vector_7" d="M53.2485 104.862L65.7527 58.1956C66.1224 56.8257 67.5258 56.0154 68.8953 56.3771L64.022 55.07C62.6498 54.7036 61.2389 55.5183 60.87 56.8898L48.3672 103.555C47.9993 104.928 48.813 106.338 50.1869 106.707C50.8738 106.89 51.5688 106.782 52.1399 106.452C52.6451 106.16 53.0217 105.675 53.2355 105.095C53.2489 105.015 53.2266 104.938 53.2485 104.862Z" fill="#A8C6CC"/>
<path id="Vector_8" d="M142.297 91.4604L123.993 59.7577C123.067 58.1534 121.017 57.6029 119.413 58.5291L91.8771 74.4269C90.2728 75.3531 89.7247 77.4035 90.6509 79.0078L108.954 110.709C109.879 112.312 111.929 112.862 113.533 111.936L141.07 96.0374C142.673 95.1119 143.222 93.0632 142.297 91.4604Z" fill="#D98A02"/>
<g id="Group_3">
<path id="Vector_9" d="M91.8782 74.4283C90.2739 75.3546 89.7258 77.4049 90.6521 79.0093L108.955 110.71C109.88 112.313 111.93 112.864 113.534 111.937L141.071 96.0388C142.676 95.1126 143.224 93.0622 142.298 91.4594" fill="#D98A02"/>
<path id="Vector_10" d="M57.6446 134.052C57.883 134.465 57.742 134.986 57.3305 135.224C56.9206 135.46 56.3961 135.321 56.1585 134.91L43.2949 112.629C43.0583 112.219 43.1991 111.694 43.609 111.457C44.0204 111.22 44.5452 111.363 44.781 111.771L57.6446 134.052Z" fill="#D98A02"/>
<path id="Vector_11" d="M63.095 130.905C63.3335 131.318 63.1909 131.841 62.781 132.077C62.3695 132.315 61.8465 132.175 61.609 131.763L48.7454 109.483C48.5087 109.073 48.648 108.548 49.0594 108.311C49.4693 108.074 49.9956 108.216 50.2314 108.625L63.095 130.905Z" fill="#D98A02"/>
<path id="Vector_12" d="M68.5391 127.762C68.7775 128.175 68.635 128.697 68.2251 128.934C67.8136 129.171 67.2906 129.031 67.0531 128.62L54.1895 106.339C53.9528 105.929 54.092 105.405 54.5035 105.167C54.9134 104.931 55.4397 105.073 55.6755 105.481L68.5391 127.762Z" fill="#D98A02"/>
<path id="Vector_13" d="M73.988 124.616C74.2265 125.029 74.0839 125.551 73.6754 125.787C73.2624 126.026 72.741 125.885 72.5034 125.473L59.6398 103.193C59.4031 102.783 59.541 102.259 59.9538 102.021C60.3622 101.785 60.8887 101.927 61.1244 102.336L73.988 124.616Z" fill="#D98A02"/>
<path id="Vector_14" d="M79.4337 121.472C79.6722 121.885 79.5312 122.406 79.1197 122.644C78.7098 122.88 78.1853 122.741 77.9477 122.33L65.0841 100.049C64.8475 99.6393 64.9883 99.1138 65.3982 98.8772C65.8096 98.6396 66.3344 98.7829 66.5701 99.1912L79.4337 121.472Z" fill="#D98A02"/>
<path id="Vector_15" d="M84.8794 118.328C85.1179 118.741 84.9782 119.262 84.5667 119.499C84.1568 119.736 83.6323 119.597 83.3948 119.185L70.5311 96.9046C70.2945 96.4947 70.4353 95.9693 70.8452 95.7326C71.2582 95.4942 71.78 95.6391 72.0158 96.0475L84.8794 118.328Z" fill="#D98A02"/>
<path id="Vector_16" d="M90.3284 115.182C90.5669 115.595 90.4227 116.118 90.0144 116.354C89.6013 116.592 89.0799 116.451 88.8424 116.04L75.9788 93.7591C75.7421 93.3492 75.88 92.8255 76.2928 92.5871C76.7012 92.3514 77.229 92.4928 77.4648 92.9012L90.3284 115.182Z" fill="#D98A02"/>
<path id="Vector_17" d="M95.7756 112.037C96.0141 112.45 95.8731 112.971 95.4616 113.209C95.0517 113.446 94.5286 113.305 94.291 112.894L81.4274 90.6136C81.1907 90.2037 81.33 89.6792 81.7401 89.4424C82.1515 89.2049 82.6763 89.3481 82.912 89.7565L95.7756 112.037Z" fill="#D98A02"/>
<path id="Vector_18" d="M101.223 108.892C101.461 109.305 101.32 109.826 100.909 110.064C100.499 110.301 99.9745 110.161 99.7369 109.75L86.8733 87.4696C86.6367 87.0597 86.7774 86.5342 87.1873 86.2976C87.5988 86.06 88.1236 86.2033 88.3593 86.6116L101.223 108.892Z" fill="#D98A02"/>
</g>
</g>
</svg>
