<svg width="76" height="105" viewBox="0 0 76 105" fill="none" xmlns="http://www.w3.org/2000/svg">
<g id="Layer_1" opacity="0.35" clip-path="url(#clip0_144_2866)">
<g id="SVGRepo_iconCarrier">
<path id="Vector" d="M56.1127 61.9738C54.6261 62.3573 53.1089 61.4632 52.7251 59.9757L49.946 49.2045C49.5622 47.717 50.4575 46.2005 51.9441 45.8169C53.4306 45.4334 54.9479 46.3274 55.3317 47.815L58.1108 58.5861C58.4944 60.0737 57.5994 61.5902 56.1127 61.9738Z" fill="#C36D22"/>
<path id="Vector_2" d="M51.9441 45.8171C51.9244 45.8222 51.9074 45.8323 51.8879 45.8378L56.0535 61.9829C56.0732 61.9781 56.093 61.9789 56.1127 61.9738C57.5993 61.5902 58.4946 60.0737 58.1108 58.5862L55.3317 47.815C54.9477 46.3277 53.4308 45.4335 51.9441 45.8171Z" fill="#9B5412"/>
<path id="Vector_3" d="M77.7434 79.2607L43.635 88.0611C30.2711 91.5091 16.5949 83.4421 13.1471 70.0791C12.7633 68.5915 13.6585 67.075 15.1451 66.6914L92.338 46.7747C93.8246 46.3912 95.3418 47.2852 95.7256 48.7728C99.1733 62.1358 91.1072 75.8127 77.7434 79.2607Z" fill="#EE9644"/>
<path id="Vector_4" d="M92.3378 46.7747L54.639 56.5015L61.5868 83.4293L77.7434 79.2607C91.1072 75.8126 99.1733 62.1358 95.7255 48.7727C95.3416 47.285 93.8244 46.3911 92.3378 46.7747Z" fill="#C36D22"/>
<path id="Vector_5" d="M31.4418 99.9315C30.7528 100.109 29.9959 100.024 29.3344 99.6337C28.0115 98.8541 27.5714 97.1484 28.352 95.8259L42.338 72.113C43.1184 70.7899 44.8226 70.3502 46.1458 71.1305C47.4687 71.9101 47.9088 73.6159 47.1283 74.9383L33.1422 98.6512C32.752 99.3129 32.1308 99.7537 31.4418 99.9315Z" fill="#6E6057"/>
<path id="Vector_6" d="M67.2004 11.0156C65.2358 9.26315 62.4521 8.64114 59.7414 9.34054L19.3678 19.7574C18.3264 20.0261 17.5324 20.8819 17.3244 21.9312C17.1391 22.9938 17.57 24.0698 18.4428 24.7063C27.5665 31.2747 30.6976 43.4102 25.8907 53.5727C25.435 54.552 25.5783 55.7021 26.2545 56.5424C26.9443 57.3601 28.0532 57.7249 29.0946 57.4562L69.4682 47.0394C72.1789 46.3399 74.3141 44.4488 75.1856 41.9646C79.0058 30.9459 75.8747 18.8106 67.2004 11.0156Z" fill="#F5DD9A"/>
<path id="Vector_7" d="M75.1856 41.9648C74.3141 44.449 72.1789 46.3401 69.4682 47.0395L53.2757 51.2174L43.549 13.5186L59.7416 9.34066C62.4523 8.64125 65.236 9.26326 67.2005 11.0157C75.8747 18.8107 79.0058 30.9461 75.1856 41.9648Z" fill="#E8C870"/>
<path id="Vector_8" d="M79.4365 66.6017L65.4504 90.3146C65.0641 90.9695 64.451 91.4148 63.7512 91.5954C63.0689 91.7714 62.2995 91.6827 61.6444 91.2966C60.3345 90.524 59.8898 88.8006 60.6624 87.4907L74.6485 63.7778C75.4345 62.4453 77.1398 62.0053 78.4545 62.7958C79.782 63.5639 80.2267 65.2872 79.4365 66.6017Z" fill="#6E6057"/>
<path id="Vector_9" d="M79.4364 66.6016L65.4503 90.3145C65.064 90.9694 64.4509 91.4147 63.7511 91.5953C63.7332 91.5999 63.7105 91.5866 63.6926 91.5913L62.0344 85.1645L74.6484 63.7777C75.4345 62.4452 77.1397 62.0052 78.4544 62.7957C79.7819 63.5638 80.2266 65.2871 79.4364 66.6016Z" fill="#615349"/>
<path id="Vector_10" d="M47.5985 95.7625C46.9095 95.9403 46.1526 95.855 45.4911 95.4647C44.1682 94.6852 43.7281 92.9794 44.5087 91.6569L58.4948 67.9441C59.2752 66.6209 60.9793 66.1813 62.3026 66.9616C63.6255 67.7412 64.0656 69.4469 63.285 70.7694L49.2989 94.4823C48.9085 95.144 48.2876 95.5848 47.5985 95.7625Z" fill="#6E6057"/>
<path id="Vector_11" d="M58.4947 67.9446L57.8664 69.0097L59.8313 76.6253L63.2849 70.7698C64.0655 69.4475 63.6254 67.7417 62.3024 66.962C60.9791 66.1815 59.2751 66.6211 58.4947 67.9446Z" fill="#615349"/>
</g>
</g>
<defs>
<clipPath id="clip0_144_2866">
<rect width="85.2828" height="85.2828" fill="white" transform="translate(0.783203 22.1592) rotate(-14.4675)"/>
</clipPath>
</defs>
</svg>
