<svg width="14" height="14" viewBox="0 0 14 14" fill="none" xmlns="http://www.w3.org/2000/svg">
<g id="Frame">
<g id="SVGRepo_iconCarrier">
<path id="Vector" d="M8.89 1.16666H6.61838C5.58926 1.16665 4.7741 1.16664 4.13615 1.25276C3.47959 1.34138 2.94818 1.52811 2.52909 1.94888C2.11002 2.36965 1.92403 2.90319 1.83576 3.56239C1.74998 4.20291 1.74999 5.02133 1.75 6.05458V9.45985C1.75 10.3396 2.28664 11.0935 3.04918 11.4095C3.00994 10.879 3.00997 10.1346 3.01 9.51532V6.64859V6.59306C3.00996 5.8454 3.00992 5.20125 3.079 4.68539C3.15303 4.13254 3.31998 3.60261 3.74809 3.17278C4.17621 2.74293 4.70402 2.57532 5.25466 2.50099C5.76845 2.43164 6.41007 2.43167 7.1547 2.43171L7.21 2.43172H8.89L8.9453 2.43171C9.68992 2.43167 10.3301 2.43164 10.8439 2.50099C10.5366 1.71953 9.7776 1.16666 8.89 1.16666Z" fill="#666666"/>
<path id="Vector_2" d="M3.8501 6.64846C3.8501 5.05817 3.8501 4.26304 4.34216 3.769C4.83422 3.27496 5.62618 3.27496 7.2101 3.27496H8.8901C10.474 3.27496 11.266 3.27496 11.7581 3.769C12.2501 4.26304 12.2501 5.05818 12.2501 6.64846V9.45972C12.2501 11.05 12.2501 11.8451 11.7581 12.3392C11.266 12.8332 10.474 12.8332 8.8901 12.8332H7.2101C5.62618 12.8332 4.83422 12.8332 4.34216 12.3392C3.8501 11.8451 3.8501 11.05 3.8501 9.45972V6.64846Z" fill="#666666"/>
</g>
</g>
</svg>
