<svg width="74" height="106" viewBox="0 0 74 106" fill="none" xmlns="http://www.w3.org/2000/svg">
<g id="_x34_" opacity="0.35" clip-path="url(#clip0_233_4700)">
<g id="SVGRepo_iconCarrier">
<g id="Group">
<g id="Group_2">
<g id="Group_3">
<g id="Group_4">
<path id="Vector" d="M47.9365 9.40694C47.9166 9.38327 47.9093 9.35619 47.902 9.32893C47.8947 9.30168 47.8711 9.26438 47.8601 9.22349C46.7966 6.62427 44.2334 5.02428 41.6234 5.33017C41.5563 5.33354 41.4929 5.35054 41.4385 5.3505C41.2828 5.37781 41.1143 5.40836 40.9493 5.45258L29.5203 8.51496C26.6155 9.29328 24.8609 12.2836 25.3358 15.3755C25.3431 15.4028 25.3503 15.4299 25.3449 15.4604C25.3795 15.6404 25.4141 15.8206 25.4651 16.0109L27.5518 23.7983L50.1941 17.7313L48.1075 9.94388C48.0565 9.75362 47.9966 9.58017 47.9365 9.40694ZM30.8022 13.299L42.1297 10.2638C42.7766 10.0905 43.475 10.5151 43.6644 11.222L44.4474 14.144L30.7351 17.8182L29.9521 14.8961C29.7628 14.1893 30.1426 13.4758 30.8022 13.299Z" fill="#F4A615"/>
</g>
<g id="Group_5" opacity="0.06">
<path id="Vector_2" d="M47.9365 9.40693L47.9147 9.32551L47.902 9.32892C46.5885 9.95746 45.1808 10.5387 43.7241 11.0892C43.7023 11.1096 43.6643 11.1198 43.6388 11.1266C43.6388 11.1266 43.6388 11.1266 43.6425 11.1403L44.4254 14.0622L30.7132 17.7364L29.9302 14.8144C29.9266 14.8008 29.9266 14.8008 29.9266 14.8008C28.3516 15.0627 26.8256 15.2531 25.3358 15.3755L25.323 15.3789L25.3449 15.4603C25.3795 15.6404 25.4141 15.8206 25.4651 16.0109L27.5299 23.7167L50.1723 17.6497L48.1075 9.94387C48.0565 9.75361 47.9966 9.58016 47.9365 9.40693Z" fill="#040000"/>
</g>
</g>
<path id="Vector_3" d="M73.3667 24.3992L73.5743 25.2758L85.5389 77.4375C87.1376 83.4037 86.6655 88.7452 82.3947 90.2103C82.2969 90.2507 82.1827 90.2813 82.0686 90.3119L36.3272 102.568C35.8578 102.694 35.3993 102.759 34.9553 102.776C32.7022 102.84 30.8317 101.492 29.3717 99.2902C28.2912 97.6423 27.4259 95.5288 26.7959 93.1776L10.8182 41.1591L73.3667 24.3992Z" fill="#FFBA1A"/>
<path id="Vector_4" d="M74.0574 21.5485L8.79433 39.0357C8.59766 38.3017 8.45552 37.5677 8.38014 36.8305C8.27761 35.9404 8.2711 35.0537 8.33904 34.1906C8.36052 33.9661 8.38192 33.7421 8.41611 33.5142C8.62085 31.8427 9.13203 30.249 9.88793 28.8081C11.1449 26.4467 13.0876 24.5133 15.5423 23.3747C16.1564 23.0792 16.8142 22.8447 17.4993 22.6611L58.5217 11.6692C58.7373 11.6114 58.9566 11.5669 59.1759 11.5231C59.3189 11.4991 59.4495 11.479 59.5799 11.4583C64.1888 10.7479 68.7628 12.7997 71.624 16.5777C71.7676 16.7579 71.8981 16.9413 72.0163 17.1284C72.9226 18.4296 73.6204 19.9175 74.0574 21.5485Z" fill="#FFBA1A"/>
<path id="Vector_5" d="M75.0364 15.6633L4.99121 34.4319L6.45891 39.9094L76.5041 21.1408L75.0364 15.6633Z" fill="#FFEA47"/>
<path id="Vector_6" d="M75.0364 15.6633L4.99121 34.4319L5.15516 35.0437L75.2004 16.2752L75.0364 15.6633Z" fill="#FBF3E3"/>
<g id="Group_6">
<path id="Vector_7" d="M25.1956 46.8281L30.0961 45.3356C30.9312 45.0813 31.8341 45.6448 32.1053 46.5899L44.217 88.7973C44.4843 89.7288 44.0366 90.6808 43.2133 90.9315L38.3127 92.424C37.4775 92.6783 36.5748 92.1148 36.3035 91.1697L24.1919 48.9623C23.9246 48.0308 24.3723 47.0788 25.1956 46.8281Z" fill="#787878"/>
<path id="Vector_8" d="M63.7442 36.499L58.754 37.6567C57.9035 37.8541 57.4035 38.7935 57.6411 39.7475L68.2558 82.3561C68.4901 83.2964 69.3538 83.897 70.1922 83.7025L75.1824 82.5448C76.033 82.3474 76.533 81.408 76.2953 80.4539L65.6806 37.8454C65.4463 36.9051 64.5826 36.3045 63.7442 36.499Z" fill="#787878"/>
<path id="Vector_9" d="M47.0026 40.8873L41.9946 42.2292C41.1744 42.449 40.7003 43.3397 40.9357 44.2183L52.3646 86.8714C52.6 87.7501 53.4559 88.2844 54.2762 88.0646L59.2842 86.7227C60.1044 86.5029 60.5785 85.6122 60.3431 84.7336L48.9142 42.0805C48.6788 41.2019 47.8229 40.6676 47.0026 40.8873Z" fill="#787878"/>
</g>
</g>
<g id="Group_7" opacity="0.1">
<path id="Vector_10" d="M73.4681 24.3721L73.6885 25.3473L85.6402 77.4103C87.2499 83.4178 86.7722 88.7894 82.3945 90.2103C82.2968 90.2508 82.1827 90.2813 82.0685 90.3119L59.0583 96.4775L41.9972 32.8047L73.4681 24.3721Z" fill="#040000"/>
<path id="Vector_11" d="M75.1508 15.6327L76.6185 21.1102L41.3928 30.5489L37.4743 15.9248L44.527 14.0351L43.7659 11.1947C43.7549 11.1538 43.7477 11.1268 43.724 11.0893C43.5112 10.4471 42.8526 10.07 42.2312 10.2365L36.3708 11.8068L35.089 7.02289L40.9493 5.45261C41.1142 5.40844 41.2827 5.37789 41.4387 5.35071C41.5021 5.33371 41.5528 5.32012 41.6072 5.32016C41.6199 5.31675 41.6236 5.33038 41.6236 5.33038C44.295 4.94957 46.9182 6.62098 47.9745 9.29515L47.9781 9.30878L47.9908 9.30537C48.0036 9.30196 48.0036 9.30196 48.0163 9.29855C48.0199 9.31218 48.0199 9.31218 48.0236 9.32581C48.0872 9.51249 48.1546 9.71298 48.2092 9.91687L48.2274 9.98484C48.2311 9.99847 48.2311 9.99846 48.2311 9.99846L49.3382 14.1301L58.5218 11.6694C58.7374 11.6116 58.9567 11.5671 59.176 11.5233C59.319 11.4992 59.4496 11.4792 59.5801 11.4585C64.2125 10.6835 68.8445 12.749 71.7257 16.5506L75.1508 15.6327Z" fill="#040000"/>
</g>
</g>
</g>
</g>
<defs>
<clipPath id="clip0_233_4700">
<rect width="86.4362" height="92.6102" fill="white" transform="translate(0.155151 16.3834) rotate(-15)"/>
</clipPath>
</defs>
</svg>
