<svg width="18" height="18" viewBox="0 0 18 18" fill="none" xmlns="http://www.w3.org/2000/svg">
<g id="filter-6535 1" clip-path="url(#clip0_2235_1415)">
<g id="Group">
<path id="Vector" d="M17.8809 14.8969C17.8809 15.115 17.7039 15.2921 17.4858 15.2921L10.9884 15.2921C10.7703 15.2921 10.5933 15.115 10.5933 14.8969C10.5933 14.6788 10.7703 14.5017 10.9884 14.5017L17.4858 14.5017C17.7039 14.5017 17.8809 14.6786 17.8809 14.8969Z" fill="#808080"/>
<path id="Vector_2" d="M11.8268 3.12321C11.8268 3.34134 11.6497 3.51837 11.4316 3.51837L0.494277 3.51837C0.276151 3.51837 0.0991211 3.34134 0.0991211 3.12322C0.0991211 2.90509 0.276151 2.72806 0.494277 2.72806L11.4316 2.72806C11.6499 2.72806 11.8268 2.90509 11.8268 3.12321Z" fill="#808080"/>
<path id="Vector_3" d="M17.8811 9.01006C17.8811 9.22818 17.7041 9.40521 17.486 9.40521L5.61586 9.40521C5.39773 9.40521 5.2207 9.22818 5.2207 9.01006C5.2207 8.79193 5.39773 8.6149 5.61586 8.6149L17.486 8.6149C17.7041 8.6149 17.8811 8.79193 17.8811 9.01006Z" fill="#808080"/>
<path id="Vector_4" d="M6.01121 9.01008C6.01121 10.0896 5.13298 10.9681 4.05321 10.9681C2.97345 10.9681 2.09521 10.0898 2.09521 9.01008C2.09521 7.93031 2.97345 7.05208 4.05321 7.05208C5.13298 7.05208 6.01121 7.93031 6.01121 9.01008ZM2.88572 9.01008C2.88572 9.65399 3.4095 10.1778 4.05341 10.1778C4.69732 10.1778 5.2211 9.65399 5.2211 9.01008C5.2211 8.36617 4.69732 7.84239 4.05341 7.84239C3.4095 7.84239 2.88572 8.36617 2.88572 9.01008Z" fill="#808080"/>
<path id="Vector_5" d="M11.3838 14.8969C11.3838 15.9765 10.5055 16.8549 9.42577 16.8549C8.34621 16.8549 7.46777 15.9767 7.46777 14.8969C7.46777 13.8172 8.34601 12.9389 9.42577 12.9389C10.5055 12.9389 11.3838 13.8174 11.3838 14.8969ZM8.25809 14.8969C8.25809 15.5408 8.78187 16.0646 9.42577 16.0646C10.0697 16.0646 10.5935 15.5408 10.5935 14.8969C10.5935 14.253 10.0697 13.7292 9.42577 13.7292C8.78187 13.7292 8.25809 14.253 8.25809 14.8969Z" fill="#808080"/>
<path id="Vector_6" d="M14.9524 3.12325C14.9524 4.20282 14.0742 5.08105 12.9944 5.08105C11.9149 5.08105 11.0366 4.20282 11.0366 3.12325C11.0366 2.04349 11.9149 1.16525 12.9944 1.16525C14.074 1.16525 14.9524 2.04349 14.9524 3.12325ZM11.8267 3.12325C11.8267 3.76716 12.3503 4.29074 12.9942 4.29074C13.6381 4.29074 14.1619 3.76716 14.1619 3.12325C14.1619 2.47935 13.6381 1.95557 12.9942 1.95557C12.3503 1.95557 11.8267 2.47935 11.8267 3.12325Z" fill="#808080"/>
<path id="Vector_7" d="M8.25811 14.8969C8.25811 15.115 8.08108 15.2921 7.86295 15.2921L0.494277 15.2921C0.276151 15.2921 0.0991211 15.115 0.0991211 14.8969C0.0991211 14.6788 0.276151 14.5017 0.494277 14.5017L7.86295 14.5017C8.08128 14.5017 8.25811 14.6786 8.25811 14.8969Z" fill="#808080"/>
<path id="Vector_8" d="M2.88557 9.01006C2.88557 9.22818 2.70854 9.40521 2.49041 9.40521L0.494277 9.40521C0.276151 9.40521 0.0991211 9.22818 0.0991211 9.01006C0.0991211 8.79193 0.276151 8.6149 0.494277 8.6149L2.49041 8.6149C2.70854 8.6149 2.88557 8.79193 2.88557 9.01006Z" fill="#808080"/>
<path id="Vector_9" d="M17.8811 3.12322C17.8811 3.34134 17.7041 3.51837 17.486 3.51837L14.5573 3.51837C14.3391 3.51837 14.1621 3.34134 14.1621 3.12322C14.1621 2.90509 14.3391 2.72806 14.5573 2.72806L17.486 2.72806C17.7041 2.72806 17.8811 2.90509 17.8811 3.12322Z" fill="#808080"/>
</g>
</g>
<defs>
<clipPath id="clip0_2235_1415">
<rect width="18" height="18" fill="white" transform="translate(0 18) rotate(-90)"/>
</clipPath>
</defs>
</svg>
