<svg width="22" height="24" viewBox="0 0 22 24" fill="none" xmlns="http://www.w3.org/2000/svg">
<path d="M11.6831 1.87832V0.73115C11.6831 0.537237 11.6066 0.351266 11.4703 0.214149C11.3341 0.0770317 11.1494 0 10.9568 0C10.7642 0 10.5794 0.0770317 10.4432 0.214149C10.307 0.351266 10.2305 0.537237 10.2305 0.73115V1.8849C4.52332 2.28411 0 7.08228 0 12.9275C0 19.0322 4.93477 24 11 24C17.0652 24 22 19.0322 22 12.9275C22 7.05304 17.4313 2.23476 11.6831 1.87832ZM11 22.5377C5.7355 22.5377 1.45258 18.2261 1.45258 12.9275C1.45258 7.62809 5.7355 3.31686 11 3.31686C16.2645 3.31686 20.5474 7.62809 20.5474 12.9275C20.5474 18.2261 16.2645 22.5377 11 22.5377Z" fill="#1C274C"/>
<path d="M9.22 17.23C9.23867 17.3793 9.248 17.51 9.248 17.622C9.248 17.7247 9.234 17.8553 9.206 18.014C8.87933 18.0047 8.50133 18 8.072 18C7.64267 18 7.26933 18.0047 6.952 18.014C6.924 17.874 6.91 17.7527 6.91 17.65C6.91 17.538 6.91933 17.398 6.938 17.23L7.428 17.188C7.50267 16.18 7.54 14.8967 7.54 13.338C7.54 11.77 7.498 10.5987 7.414 9.824L6.938 9.782C6.91933 9.63267 6.91 9.50667 6.91 9.404C6.91 9.292 6.924 9.15667 6.952 8.998C7.27867 9.00733 7.65667 9.012 8.086 9.012C8.51533 9.012 8.88867 9.00733 9.206 8.998C9.234 9.138 9.248 9.264 9.248 9.376C9.248 9.47867 9.23867 9.614 9.22 9.782L8.688 9.824C8.62267 10.6453 8.59 11.6953 8.59 12.974C9.094 13.03 9.70067 13.058 10.41 13.058C11.1193 13.058 11.796 13.0207 12.44 12.946C12.4213 11.462 12.3793 10.4213 12.314 9.824L11.838 9.782C11.8193 9.63267 11.81 9.50667 11.81 9.404C11.81 9.292 11.824 9.15667 11.852 8.998C12.1787 9.00733 12.5567 9.012 12.986 9.012C13.4153 9.012 13.7887 9.00733 14.106 8.998C14.134 9.138 14.148 9.264 14.148 9.376C14.148 9.47867 14.1387 9.614 14.12 9.782L13.588 9.824C13.5227 10.58 13.49 11.7513 13.49 13.338C13.49 14.9247 13.532 16.208 13.616 17.188L14.12 17.23C14.1387 17.3793 14.148 17.51 14.148 17.622C14.148 17.7247 14.134 17.8553 14.106 18.014C13.7793 18.0047 13.4013 18 12.972 18C12.5427 18 12.1693 18.0047 11.852 18.014C11.824 17.874 11.81 17.7527 11.81 17.65C11.81 17.538 11.8193 17.398 11.838 17.23L12.328 17.188C12.384 16.376 12.4213 15.3353 12.44 14.066C11.8427 14.0007 11.166 13.968 10.41 13.968C9.654 13.968 9.04733 14.0007 8.59 14.066C8.60867 15.3913 8.65067 16.432 8.716 17.188L9.22 17.23Z" fill="#1C274C"/>
</svg>
