<svg width="24" height="24" viewBox="0 0 24 24" fill="none" xmlns="http://www.w3.org/2000/svg">
<g id="Frame">
<g id="SVGRepo_iconCarrier">
<path id="Vector" d="M22 22H2" stroke="#A80303" stroke-width="1.5" stroke-linecap="round"/>
<path id="Vector_2" d="M2 10.9999L6.06296 7.74956M22 10.9999L13.8741 4.49919C12.7784 3.62267 11.2216 3.62267 10.1259 4.49919L9.34398 5.12474" stroke="#A80303" stroke-width="1.5" stroke-linecap="round"/>
<path id="Vector_3" d="M15.5 5.5V3.5C15.5 3.22386 15.7239 3 16 3H18.5C18.7761 3 19 3.22386 19 3.5V8.5" stroke="#A80303" stroke-width="1.5" stroke-linecap="round"/>
<path id="Vector_4" d="M4 22V9.5" stroke="#A80303" stroke-width="1.5" stroke-linecap="round"/>
<path id="Vector_5" d="M20 9.5V13.5M20 22V17.5" stroke="#A80303" stroke-width="1.5" stroke-linecap="round"/>
<path id="Vector_6" d="M15 22V17C15 15.5858 15 14.8787 14.5607 14.4393C14.1213 14 13.4142 14 12 14C10.5858 14 9.87868 14 9.43934 14.4393M9 22V17" stroke="#A80303" stroke-width="1.5" stroke-linecap="round" stroke-linejoin="round"/>
<path id="Vector_7" d="M14 9.5C14 10.6046 13.1046 11.5 12 11.5C10.8954 11.5 10 10.6046 10 9.5C10 8.39543 10.8954 7.5 12 7.5C13.1046 7.5 14 8.39543 14 9.5Z" stroke="#A80303" stroke-width="1.5"/>
</g>
</g>
</svg>
