<svg width="15" height="9" viewBox="0 0 15 9" fill="none" xmlns="http://www.w3.org/2000/svg">
<g id="icons/Arrow Down Simple/Line">
<path id="Shape" d="M14.2476 0.479143C13.9407 0.172349 13.5245 9.53674e-07 13.0906 9.53674e-07C12.6567 9.53674e-07 12.2405 0.172349 11.9336 0.479143L7.36288 5.04986L2.79216 0.479143C2.48528 0.172349 2.0691 9.53674e-07 1.63516 9.53674e-07C1.20123 9.53674e-07 0.785053 0.172349 0.478166 0.479143C0.171371 0.786031 -0.000976562 1.2022 -0.000976562 1.63614C-0.000976562 2.07008 0.171371 2.48625 0.478166 2.79314L6.20588 8.52086C6.51277 8.82765 6.92894 9 7.36288 9C7.79682 9 8.21299 8.82765 8.51988 8.52086L14.2476 2.79314C14.5544 2.48625 14.7267 2.07008 14.7267 1.63614C14.7267 1.2022 14.5544 0.786031 14.2476 0.479143Z" fill="#CCCCCC"/>
</g>
</svg>
