<svg width="24" height="24" viewBox="0 0 24 24" fill="none" xmlns="http://www.w3.org/2000/svg">
<g id="Frame">
<g id="SVGRepo_iconCarrier">
<path id="Vector" fill-rule="evenodd" clip-rule="evenodd" d="M6.39209 12.0002C6.39257 9.40299 8.18171 7.16783 10.6654 6.6616C13.149 6.15536 15.6355 7.51903 16.6042 9.91865C17.5728 12.3183 16.7539 15.0856 14.6483 16.5282C12.5426 17.9708 9.73656 17.6869 7.94624 15.8502C6.95088 14.829 6.39183 13.4441 6.39209 12.0002Z" stroke="#A80303" stroke-width="1.5" stroke-linecap="round" stroke-linejoin="round"/>
<path id="Vector_2" fill-rule="evenodd" clip-rule="evenodd" d="M9.42529 12.0001C9.42559 10.8871 10.1924 9.92928 11.2567 9.71242C12.3211 9.49556 13.3866 10.0801 13.8017 11.1085C14.2167 12.1368 13.8657 13.3227 12.9633 13.9408C12.0608 14.559 10.8584 14.4373 10.0912 13.6501C9.66467 13.2125 9.42513 12.6189 9.42529 12.0001Z" stroke="#A80303" stroke-width="1.5" stroke-linecap="round" stroke-linejoin="round"/>
<path id="Vector_3" d="M17.0079 11.25C16.5937 11.25 16.2579 11.5858 16.2579 12C16.2579 12.4142 16.5937 12.75 17.0079 12.75V11.25ZM18.525 12.75C18.9392 12.75 19.275 12.4142 19.275 12C19.275 11.5858 18.9392 11.25 18.525 11.25V12.75ZM4.875 11.25C4.46079 11.25 4.125 11.5858 4.125 12C4.125 12.4142 4.46079 12.75 4.875 12.75V11.25ZM6.3921 12.75C6.80631 12.75 7.1421 12.4142 7.1421 12C7.1421 11.5858 6.80631 11.25 6.3921 11.25V12.75ZM10.95 6.556C10.95 6.97021 11.2858 7.306 11.7 7.306C12.1142 7.306 12.45 6.97021 12.45 6.556H10.95ZM12.45 5C12.45 4.58579 12.1142 4.25 11.7 4.25C11.2858 4.25 10.95 4.58579 10.95 5H12.45ZM10.95 19C10.95 19.4142 11.2858 19.75 11.7 19.75C12.1142 19.75 12.45 19.4142 12.45 19H10.95ZM12.45 17.444C12.45 17.0298 12.1142 16.694 11.7 16.694C11.2858 16.694 10.95 17.0298 10.95 17.444H12.45ZM17.0079 12.75H18.525V11.25H17.0079V12.75ZM4.875 12.75H6.3921V11.25H4.875V12.75ZM12.45 6.556V5H10.95V6.556H12.45ZM12.45 19V17.444H10.95V19H12.45Z" fill="#A80303"/>
</g>
</g>
</svg>
