<svg width="9" height="11" viewBox="0 0 9 11" fill="none" xmlns="http://www.w3.org/2000/svg">
<g id="SVGRepo_iconCarrier">
<path id="Vector" fill-rule="evenodd" clip-rule="evenodd" d="M4.32912 9.5961C4.40598 9.6525 4.47762 9.70368 4.54308 9.74958C4.61292 9.70326 4.69038 9.64998 4.77438 9.58992C5.17044 9.30654 5.6841 8.89056 6.18997 8.37174C7.22759 7.30752 8.1 5.94906 8.1 4.5C8.1 2.51177 6.48823 0.9 4.5 0.9C2.51178 0.9 0.9 2.51177 0.9 4.5C0.9 5.93352 1.81086 7.28808 2.88642 8.36358C3.40824 8.88546 3.93336 9.30594 4.32912 9.5961ZM0 4.5C0 8.1 4.5 10.8 4.5 10.8C4.725 10.8 9 8.1 9 4.5C9 2.01472 6.98528 0 4.5 0C2.01474 0 0 2.01472 0 4.5ZM3.6 4.5C3.6 4.99704 4.00296 5.4 4.5 5.4C4.99704 5.4 5.4 4.99704 5.4 4.5C5.4 4.00294 4.99704 3.6 4.5 3.6C4.00296 3.6 3.6 4.00294 3.6 4.5ZM2.7 4.5C2.7 5.49414 3.50586 6.3 4.5 6.3C5.49414 6.3 6.3 5.49414 6.3 4.5C6.3 3.50589 5.49414 2.7 4.5 2.7C3.50586 2.7 2.7 3.50589 2.7 4.5Z" fill="#080341" stroke="black" stroke-width="0.00115"/>
</g>
</svg>
