<svg width="15" height="15" viewBox="0 0 15 15" fill="none" xmlns="http://www.w3.org/2000/svg">
<path id="Vector" d="M11.775 2.15294L10.4156 3.43235C11.2417 3.9005 11.9253 4.56163 12.4 5.35161C12.8747 6.14158 13.1244 7.03361 13.125 7.94118C13.125 9.34526 12.5324 10.6918 11.4775 11.6847C10.4226 12.6775 8.99184 13.2353 7.5 13.2353C6.00816 13.2353 4.57742 12.6775 3.52253 11.6847C2.46763 10.6918 1.875 9.34526 1.875 7.94118C1.875 6.02647 2.9625 4.35882 4.575 3.42353L3.225 2.15294C2.22928 2.79952 1.41547 3.66421 0.853667 4.67254C0.291862 5.68087 -0.00110345 6.80262 3.12316e-06 7.94118C3.12316e-06 9.81329 0.790179 11.6087 2.1967 12.9325C3.60322 14.2563 5.51088 15 7.5 15C9.48912 15 11.3968 14.2563 12.8033 12.9325C14.2098 11.6087 15 9.81329 15 7.94118C15 5.54118 13.725 3.42353 11.775 2.15294ZM8.4375 0H6.5625V8.82353H8.4375" fill="#FFF9F9"/>
</svg>
