<svg width="88" height="123" viewBox="0 0 88 123" fill="none" xmlns="http://www.w3.org/2000/svg">
<g id="Layer_1" opacity="0.3" clip-path="url(#clip0_233_4684)">
<g id="SVGRepo_iconCarrier" opacity="0.35">
<g id="Group">
<path id="Vector" d="M107.007 52.2629L63.9485 66.6941L20.7009 81.1886C19.1364 81.7129 18.2931 83.4064 18.8175 84.9708L22.2354 95.1689C22.7597 96.7333 24.4532 97.5766 26.0176 97.0523L69.2653 82.5578L112.324 68.1266C113.888 67.6023 114.732 65.9088 114.207 64.3444L110.789 54.1463C110.265 52.5819 108.572 51.7386 107.007 52.2629Z" fill="#F5D666"/>
<path id="Vector_2" d="M98.8422 27.9007L55.7835 42.3319L12.5358 56.8264C10.9714 57.3507 10.1281 59.0442 10.6524 60.6086L14.0703 70.8067C14.5947 72.3712 16.2881 73.2144 17.8526 72.6901L61.1002 58.1956L104.159 43.7644C105.723 43.2401 106.567 41.5466 106.042 39.9822L102.624 29.7841C102.1 28.2195 100.407 27.3764 98.8422 27.9007Z" fill="#F5D666"/>
</g>
<path id="Vector_3" d="M19.742 41.2584C19.0038 40.8392 18.1221 40.7541 17.3175 41.0237C16.5128 41.2934 15.8607 41.8928 15.5242 42.672L12.0887 50.6949C11.7965 51.3706 11.7984 52.1193 12.0324 52.8173L28.0133 100.5C28.5376 102.064 30.1883 103.007 31.753 102.482L42.8328 98.7687C44.3972 98.2444 45.1569 96.4946 44.6325 94.93L28.6517 47.2475C28.4177 46.5495 27.9633 45.9525 27.3232 45.589L19.742 41.2584Z" fill="#DB8000"/>
<path id="Vector_4" d="M17.3221 41.022C16.5667 41.2751 15.8627 41.8919 15.5262 42.6711L12.0895 50.6944C11.7975 51.3703 11.7983 52.1193 12.0323 52.8173L28.0132 100.5C28.5375 102.064 30.1882 103.007 31.753 102.482L37.2977 100.624L17.3221 41.022Z" fill="#EBA50F"/>
<path id="Vector_5" d="M41.8379 33.8529C41.0997 33.4337 40.218 33.3486 39.4134 33.6182C38.6089 33.8879 37.9566 34.4874 37.6201 35.2665L34.1846 43.2894C33.8926 43.9653 33.8948 44.7136 34.1289 45.4119L50.1097 93.0945C50.6341 94.6589 52.2848 95.6011 53.8495 95.0766L64.9293 91.3632C66.4937 90.8389 67.2534 89.0891 66.729 87.5245L50.7481 39.8419C50.5142 39.1438 50.0597 38.5469 49.4196 38.1834L41.8379 33.8529Z" fill="#DB8000"/>
<path id="Vector_6" d="M39.418 33.6165C38.6627 33.8697 37.9587 34.4865 37.6222 35.2656L34.1854 43.2889C33.8934 43.9648 33.8942 44.7136 34.1282 45.4119L50.1091 93.0945C50.6335 94.6589 52.2841 95.6011 53.8489 95.0766L59.3937 93.2183L39.418 33.6165Z" fill="#EBA50F"/>
<path id="Vector_7" d="M66.0113 25.7512C65.2731 25.332 64.3916 25.2468 63.5868 25.5165C62.7821 25.7862 62.13 26.3856 61.7935 27.1648L58.358 35.1876C58.066 35.8636 58.0681 36.612 58.3021 37.3102L74.283 84.9928C74.8073 86.5572 76.458 87.4994 78.0228 86.9749L89.1025 83.2615C90.6669 82.7372 91.4266 80.9874 90.9022 79.4228L74.9213 31.7402C74.6874 31.0422 74.2329 30.4452 73.5928 30.0817L66.0113 25.7512Z" fill="#DB8000"/>
<path id="Vector_8" d="M63.5914 25.5148C62.836 25.7679 62.132 26.3847 61.7955 27.1639L58.3587 35.1872C58.0668 35.8631 58.0676 36.6119 58.3016 37.3101L74.2825 84.9928C74.8068 86.5572 76.4575 87.4993 78.0223 86.9749L83.567 85.1166L63.5914 25.5148Z" fill="#EBA50F"/>
<path id="Vector_9" d="M88.1071 18.3456C87.369 17.9265 86.4874 17.8413 85.6827 18.111C84.8779 18.3807 84.2258 18.9801 83.8893 19.7592L80.4538 27.7821C80.1618 28.458 80.1639 29.2064 80.3979 29.9047L96.3788 77.5873C96.9031 79.1517 98.5538 80.0939 100.119 79.5694L111.198 75.856C112.763 75.3317 113.522 73.5819 112.998 72.0173L97.0172 24.3347C96.7832 23.6366 96.3288 23.0397 95.6886 22.6762L88.1071 18.3456Z" fill="#DB8000"/>
<path id="Vector_10" d="M85.6873 18.1093C84.932 18.3625 84.2279 18.9793 83.8914 19.7584L80.4547 27.7817C80.1627 28.4576 80.1635 29.2064 80.3975 29.9047L96.3784 77.5873C96.9027 79.1517 98.5534 80.0939 100.118 79.5694L105.663 77.7111L85.6873 18.1093Z" fill="#EBA50F"/>
</g>
</g>
<defs>
<clipPath id="clip0_233_4684">
<rect width="97" height="97" fill="white" transform="translate(0 30.8246) rotate(-18.5286)"/>
</clipPath>
</defs>
</svg>
