<svg width="26" height="26" viewBox="0 0 26 26" fill="none" xmlns="http://www.w3.org/2000/svg">
<g id="Frame">
<g id="SVGRepo_iconCarrier">
<path id="Vector" d="M8.66665 2.16669C8.95396 2.16669 9.22951 2.28082 9.43268 2.48399C9.63584 2.68715 9.74998 2.9627 9.74998 3.25002C9.74998 3.53734 9.63584 3.81289 9.43268 4.01605C9.22951 4.21922 8.95396 4.33335 8.66665 4.33335H4.33331V8.66669C4.33331 8.95401 4.21918 9.22956 4.01601 9.43272C3.81285 9.63588 3.5373 9.75002 3.24998 9.75002C2.96266 9.75002 2.68711 9.63588 2.48395 9.43272C2.28078 9.22956 2.16665 8.95401 2.16665 8.66669V3.25002C2.16665 2.9627 2.28078 2.68715 2.48395 2.48399C2.68711 2.28082 2.96266 2.16669 3.24998 2.16669H8.66665ZM8.66665 21.6667H4.33331V17.3334C4.33331 17.046 4.21918 16.7705 4.01601 16.5673C3.81285 16.3642 3.5373 16.25 3.24998 16.25C2.96266 16.25 2.68711 16.3642 2.48395 16.5673C2.28078 16.7705 2.16665 17.046 2.16665 17.3334V22.75C2.16665 23.0373 2.28078 23.3129 2.48395 23.5161C2.68711 23.7192 2.96266 23.8334 3.24998 23.8334H8.66665C8.95396 23.8334 9.22951 23.7192 9.43268 23.5161C9.63584 23.3129 9.74998 23.0373 9.74998 22.75C9.74998 22.4627 9.63584 22.1872 9.43268 21.984C9.22951 21.7808 8.95396 21.6667 8.66665 21.6667ZM22.75 16.25C22.4627 16.25 22.1871 16.3642 21.9839 16.5673C21.7808 16.7705 21.6666 17.046 21.6666 17.3334V21.6667H17.3333C17.046 21.6667 16.7704 21.7808 16.5673 21.984C16.3641 22.1872 16.25 22.4627 16.25 22.75C16.25 23.0373 16.3641 23.3129 16.5673 23.5161C16.7704 23.7192 17.046 23.8334 17.3333 23.8334H22.75C23.0373 23.8334 23.3128 23.7192 23.516 23.5161C23.7192 23.3129 23.8333 23.0373 23.8333 22.75V17.3334C23.8333 17.046 23.7192 16.7705 23.516 16.5673C23.3128 16.3642 23.0373 16.25 22.75 16.25ZM22.75 9.75002C23.0373 9.75002 23.3128 9.63588 23.516 9.43272C23.7192 9.22956 23.8333 8.95401 23.8333 8.66669V3.25002C23.8333 2.9627 23.7192 2.68715 23.516 2.48399C23.3128 2.28082 23.0373 2.16669 22.75 2.16669H17.3333C17.046 2.16669 16.7704 2.28082 16.5673 2.48399C16.3641 2.68715 16.25 2.9627 16.25 3.25002C16.25 3.53734 16.3641 3.81289 16.5673 4.01605C16.7704 4.21922 17.046 4.33335 17.3333 4.33335H21.6666V8.66669C21.6666 8.95401 21.7808 9.22956 21.9839 9.43272C22.1871 9.63588 22.4627 9.75002 22.75 9.75002ZM23.8333 11.9167H2.16665C1.87933 11.9167 1.60378 12.0308 1.40061 12.234C1.19745 12.4372 1.08331 12.7127 1.08331 13C1.08331 13.2873 1.19745 13.5629 1.40061 13.7661C1.60378 13.9692 1.87933 14.0834 2.16665 14.0834H23.8333C24.1206 14.0834 24.3962 13.9692 24.5993 13.7661C24.8025 13.5629 24.9166 13.2873 24.9166 13C24.9166 12.7127 24.8025 12.4372 24.5993 12.234C24.3962 12.0308 24.1206 11.9167 23.8333 11.9167Z" fill="white"/>
</g>
</g>
</svg>
