<svg width="20" height="20" viewBox="0 0 20 20" fill="none" xmlns="http://www.w3.org/2000/svg">
<g id="Frame" clip-path="url(#clip0_144_3651)">
<g id="SVGRepo_iconCarrier">
<g id="Page-1">
<g id="Icon-Set">
<path id="comment-2" fill-rule="evenodd" clip-rule="evenodd" d="M10 16.25C9.27 16.25 8.565 16.165 7.8875 16.0206L4.945 17.7894L4.98438 14.89C2.72875 13.5338 1.25 11.2913 1.25 8.75C1.25 4.60813 5.1675 1.25 10 1.25C14.8325 1.25 18.75 4.60813 18.75 8.75C18.75 12.8925 14.8325 16.25 10 16.25ZM10 0C4.4775 0 0 3.91813 0 8.75C0 11.5119 1.46563 13.9713 3.75 15.5744V20L8.13063 17.3419C8.73688 17.4419 9.36063 17.5 10 17.5C15.5225 17.5 20 13.5825 20 8.75C20 3.91813 15.5225 0 10 0ZM14.375 6.875H5.625C5.28 6.875 5 7.155 5 7.5C5 7.84562 5.28 8.125 5.625 8.125H14.375C14.72 8.125 15 7.84562 15 7.5C15 7.155 14.72 6.875 14.375 6.875ZM13.125 10.625H6.875C6.53 10.625 6.25 10.9044 6.25 11.25C6.25 11.5956 6.53 11.875 6.875 11.875H13.125C13.47 11.875 13.75 11.5956 13.75 11.25C13.75 10.9044 13.47 10.625 13.125 10.625Z" fill="#A80303"/>
</g>
</g>
</g>
</g>
<defs>
<clipPath id="clip0_144_3651">
<rect width="20" height="20" fill="white"/>
</clipPath>
</defs>
</svg>
