<svg width="74" height="106" viewBox="0 0 74 106" fill="none" xmlns="http://www.w3.org/2000/svg">
<g id="_x34_" opacity="0.35" clip-path="url(#clip0_233_4616)">
<g id="SVGRepo_iconCarrier">
<g id="Group">
<g id="Group_2">
<g id="Group_3">
<g id="Group_4">
<path id="Vector" d="M47.9365 9.40706C47.9166 9.38339 47.9093 9.35631 47.902 9.32905C47.8947 9.3018 47.8711 9.2645 47.8601 9.22361C46.7966 6.62439 44.2334 5.0244 41.6234 5.33029C41.5563 5.33366 41.4929 5.35066 41.4385 5.35062C41.2828 5.37794 41.1143 5.40848 40.9493 5.4527L29.5203 8.51508C26.6155 9.29341 24.8609 12.2837 25.3358 15.3757C25.3431 15.4029 25.3503 15.43 25.3449 15.4605C25.3795 15.6405 25.4141 15.8207 25.4651 16.011L27.5518 23.7985L50.1941 17.7315L48.1075 9.94401C48.0565 9.75374 47.9966 9.58029 47.9365 9.40706ZM30.8022 13.2992L42.1297 10.264C42.7766 10.0906 43.475 10.5153 43.6644 11.2222L44.4474 14.1441L30.7351 17.8183L29.9521 14.8962C29.7628 14.1894 30.1426 13.4759 30.8022 13.2992Z" fill="#F4A615"/>
</g>
<g id="Group_5" opacity="0.06">
<path id="Vector_2" d="M47.9365 9.40705L47.9147 9.32563L47.902 9.32904C46.5885 9.95758 45.1808 10.5389 43.7241 11.0893C43.7023 11.1098 43.6643 11.1199 43.6388 11.1268C43.6388 11.1268 43.6388 11.1268 43.6425 11.1404L44.4254 14.0623L30.7132 17.7365L29.9302 14.8146C29.9266 14.8009 29.9266 14.8009 29.9266 14.8009C28.3516 15.0628 26.8256 15.2532 25.3358 15.3756L25.323 15.379L25.3449 15.4605C25.3795 15.6405 25.4141 15.8207 25.4651 16.011L27.5299 23.7169L50.1723 17.6498L48.1075 9.94399C48.0565 9.75373 47.9966 9.58028 47.9365 9.40705Z" fill="#040000"/>
</g>
</g>
<path id="Vector_3" d="M73.3667 24.3994L73.5743 25.2759L85.5389 77.4376C87.1376 83.4038 86.6655 88.7453 82.3947 90.2104C82.2969 90.2509 82.1827 90.2815 82.0686 90.312L36.3272 102.568C35.8578 102.694 35.3993 102.759 34.9553 102.776C32.7022 102.84 30.8317 101.492 29.3717 99.2903C28.2912 97.6425 27.4259 95.5289 26.7959 93.1777L10.8182 41.1592L73.3667 24.3994Z" fill="#FFBA1A"/>
<path id="Vector_4" d="M74.0574 21.5486L8.79433 39.0358C8.59766 38.3018 8.45552 37.5678 8.38014 36.8305C8.27761 35.9404 8.2711 35.0538 8.33904 34.1907C8.36052 33.9662 8.38192 33.7421 8.41611 33.5142C8.62085 31.8428 9.13203 30.2491 9.88793 28.8082C11.1449 26.4468 13.0876 24.5133 15.5423 23.3747C16.1564 23.0793 16.8142 22.8448 17.4993 22.6612L58.5217 11.6693C58.7373 11.6115 58.9566 11.567 59.1759 11.5232C59.3189 11.4991 59.4495 11.4791 59.5799 11.4584C64.1888 10.748 68.7628 12.7998 71.624 16.5777C71.7676 16.758 71.8981 16.9413 72.0163 17.1284C72.9226 18.4297 73.6204 19.9176 74.0574 21.5486Z" fill="#FFBA1A"/>
<path id="Vector_5" d="M75.0364 15.6633L4.99121 34.4319L6.45891 39.9094L76.5041 21.1408L75.0364 15.6633Z" fill="#FFEA47"/>
<path id="Vector_6" d="M75.0364 15.6633L4.99121 34.4319L5.15516 35.0437L75.2004 16.2752L75.0364 15.6633Z" fill="#FBF3E3"/>
<g id="Group_6">
<path id="Vector_7" d="M25.1956 46.8281L30.0961 45.3356C30.9312 45.0814 31.8341 45.6448 32.1053 46.5899L44.217 88.7973C44.4843 89.7289 44.0366 90.6808 43.2133 90.9316L38.3127 92.4241C37.4775 92.6784 36.5748 92.1149 36.3035 91.1698L24.1919 48.9624C23.9246 48.0308 24.3723 47.0789 25.1956 46.8281Z" fill="#787878"/>
<path id="Vector_8" d="M63.7442 36.499L58.754 37.6568C57.9035 37.8541 57.4035 38.7935 57.6411 39.7476L68.2558 82.3561C68.4901 83.2965 69.3538 83.8971 70.1922 83.7026L75.1824 82.5448C76.033 82.3475 76.533 81.4081 76.2953 80.454L65.6806 37.8455C65.4463 36.9051 64.5826 36.3045 63.7442 36.499Z" fill="#787878"/>
<path id="Vector_9" d="M47.0026 40.8873L41.9946 42.2292C41.1744 42.449 40.7003 43.3397 40.9357 44.2183L52.3646 86.8714C52.6 87.7501 53.4559 88.2844 54.2762 88.0646L59.2842 86.7227C60.1044 86.5029 60.5785 85.6122 60.3431 84.7336L48.9142 42.0805C48.6788 41.2019 47.8229 40.6676 47.0026 40.8873Z" fill="#787878"/>
</g>
</g>
<g id="Group_7" opacity="0.1">
<path id="Vector_10" d="M73.4681 24.3722L73.6885 25.3474L85.6402 77.4105C87.2499 83.4179 86.7722 88.7895 82.3945 90.2105C82.2968 90.2509 82.1827 90.2815 82.0685 90.3121L59.0583 96.4776L41.9972 32.8048L73.4681 24.3722Z" fill="#040000"/>
<path id="Vector_11" d="M75.1508 15.6328L76.6185 21.1103L41.3928 30.549L37.4743 15.9249L44.527 14.0351L43.7659 11.1948C43.7549 11.1539 43.7477 11.1268 43.724 11.0893C43.5112 10.4471 42.8526 10.0701 42.2312 10.2366L36.3708 11.8069L35.089 7.02295L40.9493 5.45267C41.1142 5.4085 41.2827 5.37795 41.4387 5.35077C41.5021 5.33377 41.5528 5.32018 41.6072 5.32022C41.6199 5.31681 41.6236 5.33044 41.6236 5.33044C44.295 4.94963 46.9182 6.62104 47.9745 9.29521L47.9781 9.30884L47.9908 9.30543C48.0036 9.30202 48.0036 9.30202 48.0163 9.29861C48.0199 9.31224 48.0199 9.31224 48.0236 9.32587C48.0872 9.51255 48.1546 9.71304 48.2092 9.91693L48.2274 9.9849C48.2311 9.99853 48.2311 9.99853 48.2311 9.99853L49.3382 14.1302L58.5218 11.6694C58.7374 11.6117 58.9567 11.5672 59.176 11.5234C59.319 11.4993 59.4496 11.4793 59.5801 11.4586C64.2125 10.6836 68.8445 12.7491 71.7257 16.5507L75.1508 15.6328Z" fill="#040000"/>
</g>
</g>
</g>
</g>
<defs>
<clipPath id="clip0_233_4616">
<rect width="86.4362" height="92.6102" fill="white" transform="translate(0.155151 16.3834) rotate(-15)"/>
</clipPath>
</defs>
</svg>
